<svg width="44" height="44" viewBox="0 0 44 44" fill="none" xmlns="http://www.w3.org/2000/svg">
<path d="M11 0C4.92487 0 0 4.92487 0 11C0 17.0752 4.92487 22 11 22C4.92487 22 0 26.9248 0 33C0 39.0752 4.92487 44 11 44C17.0752 44 22 39.0752 22 33C22 39.0752 26.9248 44 33 44C39.0752 44 44 39.0752 44 33C44 26.9248 39.0752 22 33 22C39.0752 22 44 17.0752 44 11C44 4.92487 39.0752 0 33 0C26.9248 0 22 4.92487 22 11C22 4.92487 17.0752 0 11 0Z" fill="#724B34"/>
<path d="M19.632 28.288C18.512 28.288 17.624 28.024 16.968 27.496C16.312 26.952 15.984 26.208 15.984 25.264C15.984 24.336 16.288 23.616 16.896 23.104C17.52 22.592 18.256 22.24 19.104 22.048C19.952 21.84 20.912 21.696 21.984 21.616C22.896 21.552 23.592 21.44 24.072 21.28C24.568 21.12 24.816 20.824 24.816 20.392C24.816 19.592 24.544 18.96 24 18.496C23.456 18.032 22.776 17.8 21.96 17.8C21.08 17.8 20.352 18.048 19.776 18.544C19.216 19.024 18.88 19.696 18.768 20.56H16.416C16.496 19.552 16.784 18.688 17.28 17.968C17.792 17.248 18.456 16.704 19.272 16.336C20.104 15.952 21.016 15.76 22.008 15.76C23.016 15.76 23.904 15.952 24.672 16.336C25.456 16.72 26.064 17.28 26.496 18.016C26.928 18.752 27.144 19.616 27.144 20.608V25.768H28.68V28H24.84V23.92C24.52 25.2 23.904 26.248 22.992 27.064C22.08 27.88 20.96 28.288 19.632 28.288ZM20.808 26.296C21.544 26.296 22.216 26.112 22.824 25.744C23.448 25.36 23.936 24.864 24.288 24.256C24.64 23.632 24.816 22.96 24.816 22.24L24.84 21.376C24.632 21.568 24.352 21.712 24 21.808C23.664 21.888 23.2 21.96 22.608 22.024C22.576 22.024 22.536 22.032 22.488 22.048C22.456 22.048 22.424 22.048 22.392 22.048C21.096 22.16 20.128 22.4 19.488 22.768C18.864 23.136 18.552 23.68 18.552 24.4C18.552 25.024 18.752 25.496 19.152 25.816C19.568 26.136 20.12 26.296 20.808 26.296Z" fill="#F8F2EF"/>
</svg>
